<svg width="306" height="46" viewBox="0 0 306 46" fill="none" xmlns="http://www.w3.org/2000/svg">
<path d="M0.642046 0.0909081H11.0909L19.9545 21.7045H20.3636L29.2273 0.0909081H39.6761V35H31.4602V13.5568H31.1705L22.7841 34.7784H17.5341L9.14773 13.4375H8.85795V35H0.642046V0.0909081ZM57.1776 35.4943C54.4389 35.4943 52.0753 34.9545 50.0866 33.875C48.1094 32.7841 46.5866 31.233 45.5185 29.2216C44.4616 27.1989 43.9332 24.7955 43.9332 22.0114C43.9332 19.3068 44.4673 16.9432 45.5355 14.9205C46.6037 12.8864 48.1094 11.3068 50.0526 10.1818C51.9957 9.04545 54.2855 8.47727 56.9219 8.47727C58.7855 8.47727 60.4901 8.76705 62.0355 9.34659C63.581 9.92614 64.9162 10.7841 66.0412 11.9205C67.1662 13.0568 68.0412 14.4602 68.6662 16.1307C69.2912 17.7898 69.6037 19.6932 69.6037 21.8409V23.9205H46.848V19.0795H61.848C61.8366 18.1932 61.6264 17.4034 61.2173 16.7102C60.8082 16.017 60.2457 15.4773 59.5298 15.0909C58.8253 14.6932 58.0128 14.4943 57.0923 14.4943C56.1605 14.4943 55.3253 14.7045 54.5866 15.125C53.848 15.5341 53.2628 16.0966 52.831 16.8125C52.3991 17.517 52.1719 18.3182 52.1491 19.2159V24.142C52.1491 25.2102 52.3594 26.1477 52.7798 26.9545C53.2003 27.75 53.7969 28.3693 54.5696 28.8125C55.3423 29.2557 56.2628 29.4773 57.331 29.4773C58.0696 29.4773 58.7401 29.375 59.3423 29.1705C59.9446 28.9659 60.4616 28.6648 60.8935 28.267C61.3253 27.8693 61.6491 27.3807 61.8651 26.8011L69.5185 27.0227C69.2003 28.7386 68.5014 30.233 67.4219 31.5057C66.3537 32.767 64.9503 33.75 63.2116 34.4545C61.473 35.1477 59.4616 35.4943 57.1776 35.4943ZM86.0653 45.3636C83.5767 45.3636 81.446 45.017 79.6733 44.3239C77.9006 43.6307 76.5085 42.6818 75.4972 41.4773C74.4858 40.2727 73.8778 38.9091 73.6733 37.3864L81.5653 36.9432C81.7131 37.4773 81.9858 37.9432 82.3835 38.3409C82.7926 38.7386 83.321 39.0455 83.9688 39.2614C84.6278 39.4773 85.4006 39.5852 86.2869 39.5852C87.6847 39.5852 88.8381 39.2443 89.7472 38.5625C90.6676 37.892 91.1278 36.7159 91.1278 35.0341V30.4318H90.8381C90.5085 31.2386 90.0085 31.9602 89.3381 32.5966C88.6676 33.233 87.8324 33.733 86.8324 34.0966C85.8438 34.4602 84.7074 34.642 83.4233 34.642C81.5142 34.642 79.7642 34.1989 78.1733 33.3125C76.5938 32.4148 75.3267 31.0284 74.3722 29.1534C73.429 27.267 72.9574 24.8409 72.9574 21.875C72.9574 18.8182 73.446 16.3011 74.4233 14.3239C75.4006 12.3352 76.679 10.8636 78.2585 9.90909C79.8494 8.95455 81.5597 8.47727 83.3892 8.47727C84.7642 8.47727 85.9403 8.71591 86.9176 9.19318C87.9063 9.65909 88.7188 10.2614 89.3551 11C89.9915 11.7386 90.4744 12.5057 90.804 13.3011H91.0426V8.81818H99.3438V35.1023C99.3438 37.3182 98.7869 39.1875 97.6733 40.7102C96.5597 42.233 95.0028 43.3864 93.0028 44.1705C91.0028 44.9659 88.6903 45.3636 86.0653 45.3636ZM86.321 28.5739C87.3324 28.5739 88.196 28.3068 88.9119 27.7727C89.6278 27.2386 90.179 26.4716 90.5653 25.4716C90.9517 24.4716 91.1449 23.2727 91.1449 21.875C91.1449 20.4545 90.9517 19.233 90.5653 18.2102C90.1903 17.1761 89.6392 16.3807 88.9119 15.8239C88.196 15.267 87.3324 14.9886 86.321 14.9886C85.2869 14.9886 84.4119 15.2727 83.696 15.8409C82.9801 16.4091 82.4347 17.2102 82.0597 18.2443C81.696 19.267 81.5142 20.4773 81.5142 21.875C81.5142 23.2727 81.7017 24.4716 82.0767 25.4716C82.4517 26.4716 82.9915 27.2386 83.696 27.7727C84.4119 28.3068 85.2869 28.5739 86.321 28.5739ZM112.038 35.4432C110.368 35.4432 108.885 35.1648 107.589 34.608C106.305 34.0398 105.288 33.1875 104.538 32.0511C103.8 30.9034 103.43 29.4659 103.43 27.7386C103.43 26.2841 103.686 25.0568 104.197 24.0568C104.709 23.0568 105.413 22.2443 106.311 21.6193C107.209 20.9943 108.243 20.5227 109.413 20.2045C110.584 19.875 111.834 19.6534 113.163 19.5398C114.652 19.4034 115.851 19.2614 116.76 19.1136C117.669 18.9545 118.328 18.733 118.737 18.4489C119.158 18.1534 119.368 17.7386 119.368 17.2045V17.1193C119.368 16.2443 119.067 15.5682 118.464 15.0909C117.862 14.6136 117.05 14.375 116.027 14.375C114.925 14.375 114.038 14.6136 113.368 15.0909C112.697 15.5682 112.271 16.2273 112.089 17.0682L104.402 16.7955C104.629 15.2045 105.214 13.7841 106.158 12.5341C107.112 11.2727 108.419 10.2841 110.078 9.56818C111.749 8.84091 113.754 8.47727 116.095 8.47727C117.766 8.47727 119.305 8.67614 120.714 9.07386C122.124 9.46023 123.351 10.0284 124.396 10.7784C125.442 11.517 126.249 12.4261 126.817 13.5057C127.396 14.5852 127.686 15.8182 127.686 17.2045V35H119.845V31.3523H119.641C119.175 32.2386 118.578 32.9886 117.851 33.6023C117.135 34.2159 116.288 34.6761 115.311 34.983C114.345 35.2898 113.254 35.4432 112.038 35.4432ZM114.612 29.9886C115.51 29.9886 116.317 29.8068 117.033 29.4432C117.76 29.0795 118.339 28.5795 118.771 27.9432C119.203 27.2955 119.419 26.5455 119.419 25.6932V23.2045C119.18 23.3295 118.891 23.4432 118.55 23.5455C118.22 23.6477 117.857 23.7443 117.459 23.8352C117.061 23.9261 116.652 24.0057 116.232 24.0739C115.811 24.142 115.408 24.2045 115.021 24.2614C114.237 24.3864 113.567 24.5795 113.01 24.8409C112.464 25.1023 112.044 25.4432 111.749 25.8636C111.464 26.2727 111.322 26.7614 111.322 27.3295C111.322 28.1932 111.629 28.8523 112.243 29.3068C112.868 29.7614 113.658 29.9886 114.612 29.9886ZM132.783 35V0.0909081H147.203C149.817 0.0909081 152.072 0.602272 153.97 1.625C155.879 2.63636 157.351 4.05113 158.385 5.86932C159.419 7.67614 159.936 9.77841 159.936 12.1761C159.936 14.5852 159.408 16.6932 158.351 18.5C157.305 20.2955 155.811 21.6875 153.868 22.6761C151.925 23.6648 149.618 24.1591 146.947 24.1591H138.05V17.5114H145.379C146.652 17.5114 147.714 17.2898 148.567 16.8466C149.43 16.4034 150.084 15.7841 150.527 14.9886C150.97 14.1818 151.192 13.2443 151.192 12.1761C151.192 11.0966 150.97 10.1648 150.527 9.38068C150.084 8.58523 149.43 7.97159 148.567 7.53977C147.703 7.10795 146.641 6.89205 145.379 6.89205H141.22V35H132.783ZM172.43 0.0909081V35H164.095V0.0909081H172.43ZM185.116 35.4432C183.446 35.4432 181.963 35.1648 180.668 34.608C179.384 34.0398 178.366 33.1875 177.616 32.0511C176.878 30.9034 176.509 29.4659 176.509 27.7386C176.509 26.2841 176.764 25.0568 177.276 24.0568C177.787 23.0568 178.491 22.2443 179.389 21.6193C180.287 20.9943 181.321 20.5227 182.491 20.2045C183.662 19.875 184.912 19.6534 186.241 19.5398C187.73 19.4034 188.929 19.2614 189.838 19.1136C190.747 18.9545 191.406 18.733 191.815 18.4489C192.236 18.1534 192.446 17.7386 192.446 17.2045V17.1193C192.446 16.2443 192.145 15.5682 191.543 15.0909C190.94 14.6136 190.128 14.375 189.105 14.375C188.003 14.375 187.116 14.6136 186.446 15.0909C185.776 15.5682 185.349 16.2273 185.168 17.0682L177.48 16.7955C177.707 15.2045 178.293 13.7841 179.236 12.5341C180.19 11.2727 181.497 10.2841 183.156 9.56818C184.827 8.84091 186.832 8.47727 189.173 8.47727C190.844 8.47727 192.384 8.67614 193.793 9.07386C195.202 9.46023 196.429 10.0284 197.474 10.7784C198.52 11.517 199.327 12.4261 199.895 13.5057C200.474 14.5852 200.764 15.8182 200.764 17.2045V35H192.923V31.3523H192.719C192.253 32.2386 191.656 32.9886 190.929 33.6023C190.213 34.2159 189.366 34.6761 188.389 34.983C187.423 35.2898 186.332 35.4432 185.116 35.4432ZM187.69 29.9886C188.588 29.9886 189.395 29.8068 190.111 29.4432C190.838 29.0795 191.418 28.5795 191.849 27.9432C192.281 27.2955 192.497 26.5455 192.497 25.6932V23.2045C192.259 23.3295 191.969 23.4432 191.628 23.5455C191.298 23.6477 190.935 23.7443 190.537 23.8352C190.139 23.9261 189.73 24.0057 189.31 24.0739C188.889 24.142 188.486 24.2045 188.099 24.2614C187.315 24.3864 186.645 24.5795 186.088 24.8409C185.543 25.1023 185.122 25.4432 184.827 25.8636C184.543 26.2727 184.401 26.7614 184.401 27.3295C184.401 28.1932 184.707 28.8523 185.321 29.3068C185.946 29.7614 186.736 29.9886 187.69 29.9886ZM210.02 44.8182C209.02 44.8182 208.077 44.7386 207.19 44.5795C206.304 44.4318 205.543 44.233 204.906 43.983L206.747 37.9318C207.565 38.2045 208.304 38.3636 208.963 38.4091C209.634 38.4545 210.207 38.3466 210.685 38.0852C211.173 37.8352 211.548 37.3864 211.81 36.7386L212.134 35.9545L202.827 8.81818H211.554L216.378 27.5H216.651L221.543 8.81818H230.321L220.452 37.5057C219.974 38.9375 219.298 40.1989 218.423 41.2898C217.56 42.392 216.44 43.2557 215.065 43.8807C213.702 44.5057 212.02 44.8182 210.02 44.8182ZM244.912 35.4943C242.173 35.4943 239.81 34.9545 237.821 33.875C235.844 32.7841 234.321 31.233 233.253 29.2216C232.196 27.1989 231.668 24.7955 231.668 22.0114C231.668 19.3068 232.202 16.9432 233.27 14.9205C234.338 12.8864 235.844 11.3068 237.787 10.1818C239.73 9.04545 242.02 8.47727 244.656 8.47727C246.52 8.47727 248.224 8.76705 249.77 9.34659C251.315 9.92614 252.651 10.7841 253.776 11.9205C254.901 13.0568 255.776 14.4602 256.401 16.1307C257.026 17.7898 257.338 19.6932 257.338 21.8409V23.9205H234.582V19.0795H249.582C249.571 18.1932 249.361 17.4034 248.952 16.7102C248.543 16.017 247.98 15.4773 247.264 15.0909C246.56 14.6932 245.747 14.4943 244.827 14.4943C243.895 14.4943 243.06 14.7045 242.321 15.125C241.582 15.5341 240.997 16.0966 240.565 16.8125C240.134 17.517 239.906 18.3182 239.884 19.2159V24.142C239.884 25.2102 240.094 26.1477 240.514 26.9545C240.935 27.75 241.531 28.3693 242.304 28.8125C243.077 29.2557 243.997 29.4773 245.065 29.4773C245.804 29.4773 246.474 29.375 247.077 29.1705C247.679 28.9659 248.196 28.6648 248.628 28.267C249.06 27.8693 249.384 27.3807 249.599 26.8011L257.253 27.0227C256.935 28.7386 256.236 30.233 255.156 31.5057C254.088 32.767 252.685 33.75 250.946 34.4545C249.207 35.1477 247.196 35.4943 244.912 35.4943ZM261.595 35V8.81818H269.692V13.5909H269.964C270.442 11.8636 271.22 10.5795 272.3 9.73864C273.379 8.88636 274.635 8.46023 276.067 8.46023C276.453 8.46023 276.851 8.48864 277.26 8.54545C277.669 8.59091 278.05 8.66477 278.402 8.76705V16.0114C278.004 15.875 277.482 15.767 276.834 15.6875C276.197 15.608 275.629 15.5682 275.129 15.5682C274.141 15.5682 273.249 15.7898 272.453 16.233C271.669 16.6648 271.05 17.2727 270.595 18.0568C270.152 18.8295 269.93 19.7386 269.93 20.7841V35H261.595ZM304.656 16.8125L297.003 17.017C296.923 16.4716 296.707 15.9886 296.355 15.5682C296.003 15.1364 295.543 14.8011 294.974 14.5625C294.418 14.3125 293.77 14.1875 293.031 14.1875C292.065 14.1875 291.241 14.3807 290.56 14.767C289.889 15.1534 289.56 15.6761 289.571 16.3352C289.56 16.8466 289.764 17.2898 290.185 17.6648C290.616 18.0398 291.384 18.3409 292.486 18.5682L297.531 19.5227C300.145 20.0227 302.088 20.8523 303.361 22.0114C304.645 23.1705 305.293 24.7045 305.304 26.6136C305.293 28.4091 304.759 29.9716 303.702 31.3011C302.656 32.6307 301.224 33.6648 299.406 34.4034C297.588 35.1307 295.509 35.4943 293.168 35.4943C289.429 35.4943 286.48 34.7273 284.321 33.1932C282.173 31.6477 280.946 29.5795 280.639 26.9886L288.872 26.7841C289.054 27.7386 289.526 28.4659 290.287 28.9659C291.048 29.4659 292.02 29.7159 293.202 29.7159C294.27 29.7159 295.139 29.517 295.81 29.1193C296.48 28.7216 296.821 28.1932 296.832 27.5341C296.821 26.9432 296.56 26.4716 296.048 26.1193C295.537 25.7557 294.736 25.4716 293.645 25.267L289.077 24.3977C286.452 23.9205 284.497 23.0398 283.213 21.7557C281.929 20.4602 281.293 18.8125 281.304 16.8125C281.293 15.0625 281.759 13.5682 282.702 12.3295C283.645 11.0795 284.986 10.125 286.724 9.46591C288.463 8.80682 290.514 8.47727 292.878 8.47727C296.423 8.47727 299.219 9.22159 301.264 10.7102C303.31 12.1875 304.44 14.2216 304.656 16.8125Z" fill="black"/>
</svg>
